# xmcd
# 
# Track frame offsets:
#     150
#     20142
#     34287
#     55232
#     73240
#     91675
#     110887
#     131297
#     144315
#     164332
# 
# Disc length: 2416
# 
# Revision: 1
# Processed by: cddbd v1.5.2PL0 Copyright (c) Steve Scherf et al.
# Submitted via: BonkEnc v1.0.8
# 
DISCID=8d096e0a
DTITLE=久川綾 - MARCHING AYA
DYEAR=1997
DGENRE=Pop
TTITLE0=着ぐるみ隊がゆく
TTITLE1=ガールズ・クーデター
TTITLE2=風に散らす涙
TTITLE3=捕まらないよ
TTITLE4=おべんとうのうた
TTITLE5=My Heart言い出せない,Your Heart確かめたい
TTITLE6=生まれ変わるために
TTITLE7=ムーンライト伝説
TTITLE8=Perseus
TTITLE9=愛をあなたに
EXTD=YEAR: 1997 ID3G: 13
EXTT0=
EXTT1=
EXTT2=
EXTT3=
EXTT4=
EXTT5=
EXTT6=
EXTT7=
EXTT8=
EXTT9=
PLAYORDER=
